<?xml version="1.0" standalone="no"?>
<!DOCTYPE svg PUBLIC "-//W3C//DTD SVG 20010904//EN"
 "http://www.w3.org/TR/2001/REC-SVG-20010904/DTD/svg10.dtd">
<svg version="1.0" xmlns="http://www.w3.org/2000/svg"
 width="1100.000000pt" height="1100.000000pt" viewBox="0 0 1100.000000 1100.000000"
 preserveAspectRatio="xMidYMid meet">

<g transform="translate(0.000000,1100.000000) scale(0.100000,-0.100000)"
fill="#000000" stroke="none">
<path d="M1860 8680 l0 -450 2575 0 2575 0 0 150 0 150 -2425 0 -2425 0 0 150
0 150 3340 0 3340 0 -2 -2422 -3 -2423 -3335 0 -3335 0 -3 1968 -2 1967 -150
0 -150 0 0 -2292 c0 -2506 -3 -2360 57 -2470 42 -77 117 -146 202 -187 l76
-36 1198 -3 c944 -2 1198 -5 1195 -15 -3 -6 -38 -177 -79 -379 l-74 -368
-1287 0 -1288 0 0 -150 0 -150 2500 0 2500 0 0 150 0 150 -150 0 c-147 0 -150
0 -155 23 -3 12 -34 173 -70 357 -36 184 -67 345 -70 357 l-5 23 1197 2 1198
3 76 36 c85 41 160 110 202 187 61 111 57 -95 57 3075 l0 2897 -3640 0 -3640
0 0 -450z m6980 -5167 c0 -189 -8 -220 -69 -260 l-34 -23 -3237 0 -3237 0 -34
23 c-61 40 -69 71 -69 260 l0 167 3340 0 3340 0 0 -167z m-2659 -960 l74 -378
-377 -3 c-208 -1 -548 -1 -756 0 l-378 3 73 350 c39 193 72 362 72 378 l1 27
609 0 609 0 73 -377z"/>
<path d="M7424 8519 c-41 -12 -91 -69 -100 -114 -9 -49 19 -119 58 -147 44
-31 123 -35 166 -9 100 63 95 205 -8 259 -47 24 -67 25 -116 11z"/>
<path d="M7863 8511 c-138 -64 -92 -281 60 -281 88 0 151 63 151 152 0 108
-111 176 -211 129z"/>
<path d="M8334 8519 c-41 -12 -91 -69 -100 -114 -9 -49 19 -119 58 -147 44
-31 123 -35 166 -9 100 63 95 205 -8 259 -47 24 -67 25 -116 11z"/>
<path d="M5808 6108 l-3 -1513 -152 -3 -153 -3 0 1136 0 1135 -150 0 -150 0 0
-1135 0 -1135 -155 0 -155 0 0 1365 0 1365 -150 0 -150 0 0 -1365 0 -1366
-152 3 -153 3 -3 833 -2 832 -145 0 -145 0 -2 -832 -3 -833 -152 -3 -153 -3 0
1136 0 1135 -150 0 -150 0 0 -1135 0 -1135 -155 0 -155 0 0 530 0 530 -150 0
-150 0 0 -530 0 -530 -150 0 -150 0 0 -150 0 -150 1815 0 1815 0 0 1665 0
1665 -145 0 -145 0 -2 -1512z"/>
<path d="M6410 7470 l0 -150 1060 0 1060 0 0 150 0 150 -1060 0 -1060 0 0
-150z"/>
<path d="M7252 6989 c-457 -96 -781 -457 -834 -928 -47 -422 178 -846 552
-1040 181 -94 327 -126 540 -118 181 6 276 29 425 101 130 63 205 117 306 223
126 132 208 279 256 461 24 87 27 115 27 267 0 152 -3 180 -27 267 -108 404
-431 702 -836 773 -117 21 -295 18 -409 -6z m68 -739 l0 -450 449 0 450 0 -15
-52 c-23 -82 -88 -207 -141 -273 -68 -83 -153 -150 -258 -201 -111 -54 -199
-74 -336 -74 -265 0 -493 122 -634 339 -237 366 -117 864 260 1076 51 28 193
84 218 85 4 0 7 -202 7 -450z m376 429 c203 -63 364 -199 454 -384 50 -101 74
-184 57 -191 -7 -2 -140 -3 -297 -2 l-285 3 -3 298 c-1 163 0 297 2 297 2 0
35 -10 72 -21z"/>
<path d="M6410 4440 l0 -150 1060 0 1060 0 0 150 0 150 -1060 0 -1060 0 0
-150z"/>
<path d="M7364 2599 c-70 -27 -128 -79 -161 -147 l-28 -57 -3 -262 -3 -263
985 0 986 0 0 150 0 150 -835 0 -835 0 0 75 0 75 456 0 457 0 -7 43 c-17 107
-91 199 -193 237 -50 19 -77 20 -411 19 -329 0 -361 -2 -408 -20z"/>
</g>
</svg>
